<svg version="1.0" xmlns="http://www.w3.org/2000/svg"
     width="2880.000000pt" height="3204.000000pt" viewBox="0 0 2880.000000 3204.000000"
     preserveAspectRatio="xMidYMid meet">
    <g transform="translate(0.000000,3204.000000) scale(0.100000,-0.100000)"
       fill="#015892" stroke="#015892" stroke-width="8" stroke-linecap="square" >
        <path d="M1061 31973 c-27 -38 -277 -378 -555 -758 -278 -379 -506 -697 -506
            -704 0 -9 3 -11 8 -5 5 5 249 338 542 739 294 402 545 745 558 763 13 17 19
            32 13 32 -6 0 -33 -30 -60 -67z"/>
        <path d="M5780 32034 c0 -6 173 -546 385 -1200 212 -654 385 -1194 385 -1199
            0 -6 -424 -258 -942 -560 -519 -302 -1478 -861 -2133 -1242 -655 -382 -1190
            -698 -1190 -704 0 -5 -513 -308 -1140 -674 -627 -365 -1141 -669 -1143 -675
            -6 -16 -108 -74 1186 680 627 366 1137 667 1132 670 -6 4 3886 2280 4215 2465
            42 23 2785 1622 3950 2301 115 68 211 122 212 120 2 -1 -41 -83 -96 -182 -99
            -181 -375 -683 -736 -1339 -109 -198 -273 -497 -365 -665 -627 -1141 -661
            -1203 -1105 -2010 -303 -551 -367 -668 -369 -683 -1 -6 -19 -44 -40 -82 -21
            -39 -125 -227 -231 -420 -106 -192 -319 -582 -475 -865 -156 -283 -381 -693
            -500 -910 -119 -217 -317 -577 -440 -800 -206 -375 -446 -811 -920 -1675 -103
            -187 -278 -506 -390 -710 -111 -203 -260 -473 -330 -600 -70 -126 -174 -316
            -231 -422 -96 -177 -106 -192 -131 -193 -16 0 -987 122 -2159 270 -1172 149
            -2143 270 -2158 269 -26 -1 -26 -1 4 -10 17 -5 979 -128 2140 -274 1161 -146
            2122 -269 2136 -273 25 -7 19 -16 -233 -362 -143 -195 -335 -458 -427 -585
            -92 -126 -278 -381 -413 -565 -134 -184 -354 -486 -489 -670 -1009 -1381
            -1712 -2343 -2186 -2990 -304 -415 -553 -762 -553 -770 0 -8 3 -10 8 -5 5 6
            267 363 583 793 316 431 621 848 678 925 58 78 318 435 580 792 634 868 2328
            3183 2423 3313 l76 104 102 -314 c56 -172 186 -574 290 -893 104 -319 344
            -1061 535 -1650 190 -588 395 -1218 455 -1400 189 -576 820 -2531 820 -2541 0
            -6 -120 -80 -267 -166 -148 -85 -770 -448 -1383 -805 -613 -357 -1963 -1144
            -3000 -1747 -1037 -604 -1889 -1102 -1894 -1107 -5 -5 -8 -11 -5 -13 2 -3 87
            44 189 103 1166 678 6379 3714 6390 3721 8 5 895 522 1970 1149 1075 626 1998
            1164 2050 1195 52 30 96 53 98 51 2 -2 -14 -34 -36 -72 -22 -37 -118 -212
            -215 -388 -163 -298 -311 -567 -892 -1625 -126 -228 -326 -593 -445 -810 -280
            -511 -470 -857 -635 -1155 -73 -132 -223 -404 -333 -605 -110 -201 -298 -543
            -417 -760 -120 -217 -307 -558 -416 -757 -109 -199 -258 -471 -332 -605 -74
            -134 -275 -499 -447 -813 -172 -313 -371 -675 -441 -802 -71 -128 -158 -288
            -193 -355 -34 -68 -125 -235 -201 -373 -76 -137 -211 -383 -300 -545 -421
            -767 -578 -1053 -695 -1265 -70 -126 -174 -316 -231 -422 -96 -177 -106 -192
            -131 -193 -16 0 -987 122 -2159 270 -1172 149 -2143 270 -2158 269 -26 -1 -26
            -1 4 -10 17 -5 979 -128 2140 -274 1161 -146 2122 -269 2136 -273 25 -7 19
            -16 -233 -362 -143 -195 -335 -458 -427 -585 -92 -126 -286 -392 -431 -590
            -145 -198 -363 -497 -486 -665 -122 -168 -540 -739 -928 -1270 -387 -530 -702
            -967 -699 -970 8 -8 52 48 247 315 101 138 472 646 826 1130 1438 1967 2144
            2931 2161 2953 17 23 19 19 119 -290 56 -172 186 -574 290 -893 104 -319 344
            -1061 535 -1650 404 -1247 505 -1558 511 -1564 2 -2 6 -2 9 0 7 8 -16 82 -325
            1034 -160 495 -372 1148 -470 1450 -98 303 -278 858 -400 1234 -122 375 -220
            684 -218 685 6 6 6310 -4362 6308 -4370 -1 -5 -11 -14 -23 -21 -19 -11 -15
            -12 30 -10 45 2 52 5 56 25 3 17 0 22 -18 22 -14 0 -1249 848 -3161 2172
            -1727 1194 -3155 2180 -3174 2190 -31 16 -32 18 -10 18 13 0 2049 -256 4524
            -570 2476 -313 4563 -578 4639 -587 104 -13 138 -21 142 -33 2 -8 47 -202 100
            -430 101 -437 551 -2376 606 -2615 18 -77 34 -142 36 -144 21 -28 -19 150
            -578 2554 -77 336 -142 621 -143 635 -2 14 -6 32 -9 40 -7 14 -207 870 -392
            1674 -76 327 -86 382 -75 400 7 12 123 172 258 356 135 184 336 459 447 610
            111 151 306 418 433 592 128 174 232 319 232 322 0 5 137 193 674 926 82 113
            234 320 336 460 103 140 305 417 450 615 145 198 347 475 450 615 103 140 303
            415 446 610 143 195 379 518 524 717 146 200 269 363 274 363 11 0 6448 -4278
            6461 -4295 6 -7 461 -312 1010 -678 550 -365 1572 -1044 2270 -1508 1461 -972
            1295 -863 1295 -851 0 6 -1020 688 -2267 1518 -1248 829 -2272 1513 -2278
            1520 -5 7 -1088 728 -2405 1604 -3952 2626 -4070 2705 -4070 2713 0 5 71 106
            158 225 87 120 270 370 407 557 137 187 332 455 435 595 102 140 305 417 450
            615 145 198 366 500 490 670 125 171 327 447 450 615 123 168 320 438 439 600
            287 394 362 495 370 497 3 1 41 -48 83 -110 42 -62 188 -272 324 -467 135
            -195 362 -521 504 -725 367 -530 704 -1014 945 -1360 115 -165 299 -430 410
            -590 345 -497 692 -996 945 -1360 134 -192 336 -483 448 -645 113 -162 316
            -455 452 -650 231 -332 439 -632 938 -1350 113 -162 296 -425 407 -585 111
            -159 290 -417 398 -573 108 -156 197 -286 197 -289 0 -3 82 -123 182 -267 756
            -1086 999 -1436 1314 -1889 148 -213 270 -383 272 -377 2 5 -99 157 -224 337
            -216 311 -336 483 -816 1173 -112 162 -318 458 -456 657 -139 199 -252 364
            -252 367 0 4 -53 82 -117 174 -128 184 -507 728 -818 1177 -111 160 -311 448
            -445 640 -237 341 -536 771 -945 1360 -195 281 -345 497 -855 1230 -134 193
            -355 510 -490 705 -327 471 -679 977 -935 1345 -115 165 -315 453 -445 640
            -450 649 -758 1091 -882 1270 -69 99 -132 180 -139 180 -7 0 -65 -70 -127
            -155 -105 -143 -641 -876 -1262 -1725 -141 -192 -350 -478 -465 -635 -115
            -157 -318 -435 -452 -618 -133 -182 -354 -484 -490 -670 -135 -185 -287 -392
            -336 -460 -54 -73 -94 -119 -99 -114 -10 10 -48 251 -298 1872 -251 1628 -400
            2583 -405 2600 -6 20 -95 653 -92 656 1 1 160 40 352 87 3728 910 11491 2810
            11494 2813 2 2 2 6 -1 9 -3 3 -12575 -3066 -14167 -3459 -137 -34 -160 -41
            -150 -50 2 -2 553 131 1224 295 671 165 1222 299 1225 299 3 0 32 -192 64
            -428 33 -235 65 -452 72 -482 15 -58 31 -162 314 -1995 99 -643 218 -1413 264
            -1710 46 -297 83 -541 82 -542 -4 -4 -6105 753 -6110 758 -4 4 -104 434 -522
            2239 -96 415 -213 919 -260 1118 -47 200 -83 370 -80 378 4 10 -2 14 -18 14
            -16 0 -1148 777 -3162 2172 -1727 1194 -3155 2180 -3174 2190 -31 16 -32 18
            -10 18 13 0 2049 -256 4524 -570 2476 -313 4563 -578 4639 -587 104 -13 138
            -21 142 -33 2 -8 47 -202 100 -430 101 -437 551 -2376 606 -2615 18 -77 34
            -142 36 -144 21 -28 -19 150 -578 2554 -77 336 -142 621 -143 635 -2 14 -6 32
            -9 40 -7 15 -216 909 -393 1676 l-88 382 149 203 c82 112 246 337 365 499 119
            162 320 437 446 610 127 173 349 477 494 675 145 198 348 475 450 615 201 275
            522 714 940 1285 278 380 481 657 881 1205 135 184 303 413 373 509 71 96 129
            180 130 188 3 20 299 423 311 422 17 0 638 -416 627 -420 -6 -2 1576 -1059
            3516 -2349 1940 -1290 4283 -2847 5207 -3462 924 -614 1681 -1115 1684 -1112
            3 2 0 8 -5 13 -8 8 -2388 1592 -8950 5954 -788 524 -1428 954 -1424 957 4 3
            -138 102 -316 220 -178 118 -324 219 -324 223 0 9 55 86 550 762 145 198 347
            475 450 615 103 140 305 417 450 615 437 598 743 1016 940 1285 102 140 312
            426 465 635 153 209 292 399 309 423 16 23 32 42 35 42 3 0 41 -51 83 -113 42
            -62 188 -272 324 -467 135 -195 362 -521 503 -725 142 -203 367 -527 501 -720
            134 -192 320 -460 414 -595 93 -135 278 -400 410 -590 326 -470 716 -1032 934
            -1345 99 -143 180 -263 179 -266 -1 -4 63 -101 143 -216 191 -276 575 -828
            825 -1188 111 -159 332 -477 490 -705 159 -228 381 -548 493 -710 378 -543
            607 -872 897 -1290 158 -228 359 -516 445 -640 199 -286 561 -807 906 -1303
            148 -213 270 -383 272 -377 2 5 -22 47 -54 92 -32 46 -166 238 -298 428 -359
            518 -704 1015 -976 1405 -134 193 -336 483 -448 645 -113 162 -316 455 -452
            650 -136 195 -339 488 -452 650 -709 1020 -1025 1475 -1393 2005 -111 160
            -241 347 -290 417 -49 70 -90 133 -91 140 -1 8 -106 164 -234 348 -128 184
            -346 497 -483 695 -138 198 -341 491 -452 650 -111 160 -332 477 -490 705
            -271 391 -439 632 -886 1275 -104 149 -327 470 -497 715 -170 245 -315 445
            -323 445 -7 0 -114 -137 -237 -305 -288 -392 -755 -1032 -1361 -1860 -154
            -212 -355 -486 -446 -610 -91 -124 -279 -380 -417 -570 -139 -190 -367 -502
            -507 -693 -149 -204 -258 -344 -263 -339 -10 10 -47 241 -318 1997 -291 1886
            -379 2447 -385 2453 -3 3 -8 2 -12 -1 -5 -6 5 -77 53 -342 7 -44 117 -750 244
            -1570 127 -819 268 -1733 314 -2030 46 -297 83 -541 82 -542 -4 -4 -6105 753
            -6110 758 -4 4 -63 257 -522 2239 -96 415 -213 918 -259 1117 -47 199 -85 364
            -85 368 0 4 -15 5 -32 3 -20 -2 -826 -466 -2087 -1201 -1130 -659 -2058 -1194
            -2061 -1190 -4 5 -179 541 -389 1193 -211 652 -387 1189 -392 1195 -6 5 -9 5
            -9 -1z m5163 -906 c113 -491 312 -1347 441 -1903 220 -951 363 -1569 575
            -2495 50 -217 201 -872 336 -1455 136 -583 347 -1494 470 -2025 123 -531 271
            -1170 330 -1420 58 -250 106 -464 107 -475 0 -11 -3 -28 -7 -38 -5 -12 -3 -16
            6 -12 11 4 38 -100 121 -457 59 -255 164 -706 233 -1003 69 -297 124 -547 123
            -555 -3 -14 -650 66 -4647 572 -2555 324 -4647 590 -4649 593 -2 2 5 19 16 37
            11 18 122 220 248 448 281 512 818 1491 1359 2475 142 259 342 623 445 810
            329 600 528 961 753 1370 784 1426 837 1523 837 1536 0 6 9 26 19 43 10 17
            121 218 246 446 125 228 327 595 448 815 120 220 295 537 387 705 183 334 445
            810 780 1420 186 337 451 820 732 1333 39 70 73 127 77 127 4 0 100 -402 214
            -892z m3747 -3219 c1658 -205 3018 -375 3022 -378 4 -3 -58 -94 -137 -201 -79
            -106 -142 -197 -140 -200 2 -3 -94 -138 -212 -300 -119 -162 -293 -401 -388
            -530 -94 -129 -283 -387 -418 -572 -136 -186 -357 -488 -490 -670 -134 -183
            -337 -461 -452 -618 -192 -262 -381 -520 -885 -1210 -103 -140 -297 -406 -432
            -590 -134 -184 -362 -495 -504 -690 -455 -621 -427 -585 -436 -564 -9 21 -48
            187 -378 1614 -120 520 -313 1352 -429 1850 -401 1729 -520 2245 -526 2280 -3
            19 -64 285 -135 591 -72 306 -130 560 -130 564 0 4 12 5 28 2 15 -3 1384 -173
            3042 -378z m-7095 -9724 c1700 -1175 3094 -2140 3098 -2145 5 -4 -162 -107
            -370 -228 -208 -121 -1136 -661 -2062 -1201 -927 -540 -1688 -978 -1691 -974
            -7 8 -742 2277 -786 2423 -12 41 -153 480 -314 975 -160 495 -372 1148 -470
            1450 -98 303 -277 857 -399 1231 -122 375 -221 685 -221 688 0 4 28 -13 63
            -37 34 -25 1453 -1006 3152 -2182z m3348 -3067 c114 -491 310 -1341 437 -1888
            127 -547 332 -1429 455 -1960 123 -531 326 -1404 450 -1940 124 -536 287
            -1238 361 -1560 74 -322 180 -778 234 -1015 55 -236 149 -644 210 -905 61
            -261 111 -484 112 -495 0 -11 -3 -28 -7 -38 -5 -12 -3 -16 6 -12 11 4 38 -100
            121 -457 59 -255 164 -706 233 -1003 69 -297 124 -547 123 -555 -3 -14 -650
            66 -4647 572 -2555 324 -4647 590 -4649 593 -2 2 5 19 16 37 11 18 122 220
            248 448 125 228 326 595 447 815 121 220 307 560 415 755 107 195 240 438 296
            540 57 102 105 193 109 203 4 9 95 178 203 375 108 196 273 497 367 667 93
            171 177 324 187 340 10 17 121 219 248 450 126 231 327 598 447 815 120 217
            307 559 417 760 110 201 260 473 333 605 153 277 454 825 695 1265 92 168 268
            487 390 710 123 223 310 565 418 760 107 195 254 463 327 595 118 214 541 985
            712 1298 35 64 68 117 72 117 4 0 100 -402 214 -892z m3747 -3219 c1658 -205
            3018 -375 3022 -378 4 -3 -68 -108 -160 -233 -92 -124 -282 -383 -422 -575
            -140 -191 -371 -508 -514 -703 -583 -797 -759 -1038 -954 -1305 -113 -154
            -289 -395 -392 -535 -538 -734 -680 -930 -680 -935 0 -5 -141 -199 -695 -955
            -91 -124 -278 -380 -417 -569 -206 -282 -253 -341 -260 -325 -8 20 -152 635
            -323 1379 -144 626 -222 966 -486 2105 -132 569 -312 1346 -400 1725 -88 380
            -211 911 -274 1181 -63 271 -115 495 -115 499 0 4 12 5 28 2 15 -3 1384 -173
            3042 -378z"/>
        <path d="M22020 1965 c-7954 -1947 -7531 -1843 -7538 -1850 -3 -3 -3 -7 -1 -9
            2 -2 553 131 1224 295 671 165 1222 299 1225 299 3 0 22 -127 44 -283 56 -410
            57 -417 69 -417 6 0 7 15 3 37 -13 75 -96 667 -93 669 1 1 2387 585 5302 1297
            2915 713 5580 1365 5923 1449 342 83 622 156 622 160 0 4 -6 7 -12 7 -7 -1
            -3053 -745 -6768 -1654z"/>
    </g>
</svg>